<?xml version="1.0" encoding="utf-8"?>
<!-- Generator: Adobe Illustrator 23.0.5, SVG Export Plug-In . SVG Version: 6.00 Build 0)  -->
<svg version="1.1" id="publicdomainvectors.org" xmlns="http://www.w3.org/2000/svg" xmlns:xlink="http://www.w3.org/1999/xlink"
	 x="0px" y="0px" viewBox="0 0 411.36 748.21" style="enable-background:new 0 0 411.36 748.21;" xml:space="preserve">
<style type="text/css">
	.st0{fill:#B9B9B9;}
	.st1{fill:url(#SVGID_1_);}
	.st2{fill:url(#SVGID_2_);}
	.st3{fill:#6D6E71;}
	.st4{fill:#A7A9AC;}
	.st5{fill:none;}
</style>
<g>
	<g>
		<path class="st0" d="M406.95,316.22L236.7,21.39C230.85,11.25,220.03,5,208.32,5c-11.71,0-22.53,6.25-28.38,16.38L9.69,316.22
			c-2.86,4.96-4.34,10.65-4.34,16.38c0,18.1,14.6,32.76,32.71,32.82h57.36c18.1,0,32.77,14.67,32.77,32.77v208.75
			c0,18.1,14.67,32.77,32.77,32.77h32.22v108.5h30.35v-108.5h32.22c18.1,0,32.77-14.67,32.77-32.77V398.19
			c0-18.1,14.67-32.77,32.77-32.77h57.29c18.05,0,32.77-14.72,32.77-32.82C411.36,326.81,409.87,321.18,406.95,316.22z"/>
		<linearGradient id="SVGID_1_" gradientUnits="userSpaceOnUse" x1="187.8345" y1="404.2095" x2="218.186" y2="404.2095">
			<stop  offset="0" style="stop-color:#E4E0DE"/>
			<stop  offset="0.0585" style="stop-color:#D5D4D3"/>
			<stop  offset="0.1703" style="stop-color:#AEB3B6"/>
			<stop  offset="0.1742" style="stop-color:#ADB2B5"/>
			<stop  offset="0.3315" style="stop-color:#E1E3E5"/>
			<stop  offset="0.4944" style="stop-color:#F1F1F1"/>
			<stop  offset="0.8282" style="stop-color:#ACB1B5"/>
			<stop  offset="0.9157" style="stop-color:#999FA4"/>
		</linearGradient>
		<polygon class="st1" points="187.83,60.21 187.83,387.96 187.83,748.21 218.19,748.21 218.19,387.96 218.19,60.21 		"/>
		<linearGradient id="SVGID_2_" gradientUnits="userSpaceOnUse" x1="25.671" y1="163.7321" x2="380.3189" y2="518.38">
			<stop  offset="0" style="stop-color:#FDC70C"/>
			<stop  offset="1" style="stop-color:#F3903F"/>
		</linearGradient>
		<path class="st2" d="M401.61,311.22L231.36,16.39C225.51,6.25,214.69,0,202.98,0c-11.71,0-22.53,6.25-28.38,16.38L4.34,311.22
			C1.49,316.18,0,321.86,0,327.6c0,18.1,14.6,32.76,32.71,32.82h57.36c18.1,0,32.77,14.67,32.77,32.77v208.75
			c0,18.1,14.67,32.77,32.77,32.77h94.8c18.1,0,32.77-14.67,32.77-32.77V393.19c0-18.1,14.67-32.77,32.77-32.77h57.29
			c18.05,0,32.77-14.72,32.77-32.82C406.02,321.81,404.52,316.18,401.61,311.22z"/>
		<path class="st3" d="M401.61,311.22L231.36,16.39C225.51,6.25,214.69,0,202.98,0c-11.71,0-22.53,6.25-28.38,16.38L4.34,311.22
			C1.49,316.18,0,321.86,0,327.6c0,18.1,14.6,32.76,32.71,32.82h57.36c18.1,0,32.77,14.67,32.77,32.77v208.75
			c0,18.1,14.67,32.77,32.77,32.77h94.8c18.1,0,32.77-14.67,32.77-32.77V393.19c0-18.1,14.67-32.77,32.77-32.77h57.29
			c18.05,0,32.77-14.72,32.77-32.82C406.02,321.81,404.52,316.18,401.61,311.22z M373.25,357.42h-57.29
			c-19.73,0-35.77,16.05-35.77,35.77v208.75c0,16.42-13.36,29.77-29.77,29.77h-94.8c-16.42,0-29.77-13.36-29.77-29.77V393.19
			c0-19.73-16.05-35.77-35.77-35.77H32.71C16.33,357.36,3,343.99,3,327.6c0-5.25,1.36-10.4,3.94-14.88L177.2,17.89
			C182.5,8.7,192.38,3,202.98,3c10.6,0,20.48,5.7,25.78,14.89l170.25,294.83c2.63,4.47,4.01,9.61,4.01,14.88
			C403.02,344.04,389.67,357.42,373.25,357.42z"/>
		<path class="st4" d="M224.49,12.22c1.63,1.7,3.07,3.59,4.27,5.67l170.25,294.83c2.63,4.47,4.01,9.61,4.01,14.88
			c0,16.44-13.35,29.82-29.77,29.82h-57.29c-19.73,0-35.77,16.05-35.77,35.77v208.75c0,16.42-13.36,29.77-29.77,29.77h-94.8
			c-7.97,0-15.21-3.15-20.56-8.27c5.42,5.67,13.06,9.22,21.51,9.22h94.8c16.42,0,29.77-13.36,29.77-29.77V394.14
			c0-19.73,16.05-35.77,35.77-35.77h57.29c16.41,0,29.77-13.38,29.77-29.82c0-5.27-1.38-10.41-4.01-14.88L229.71,18.84
			C228.28,16.36,226.51,14.15,224.49,12.22z"/>
		<path class="st5" d="M155.61,616.71c-8.15,0-14.77-6.63-14.77-14.77V393.19c0-28-22.78-50.77-50.77-50.77H32.71
			C24.62,342.39,18,335.74,18,327.6c0-2.63,0.67-5.19,1.94-7.4L190.19,25.39c2.63-4.56,7.53-7.39,12.79-7.39
			c5.26,0,10.16,2.83,12.79,7.39l170.32,294.96c1.28,2.17,1.93,4.61,1.93,7.25c0,8.17-6.63,14.82-14.77,14.82h-57.29
			c-28,0-50.77,22.78-50.77,50.77v208.75c0,8.15-6.63,14.77-14.77,14.77H155.61z"/>
		<g>
			<path class="st3" d="M250.41,619.21h-94.8c-9.52,0-17.27-7.75-17.27-17.27V393.19c0-26.62-21.66-48.27-48.27-48.27H32.71
				c-9.49-0.03-17.21-7.8-17.21-17.32c0-3.07,0.79-6.06,2.28-8.65L188.02,24.14c3.08-5.33,8.81-8.64,14.96-8.64
				s11.88,3.31,14.96,8.64l170.32,294.96c1.5,2.54,2.26,5.41,2.26,8.5c0,9.55-7.75,17.32-17.27,17.32h-57.29
				c-26.62,0-48.27,21.66-48.27,48.27v208.75C267.68,611.47,259.93,619.21,250.41,619.21z M202.98,20.5
				c-4.37,0-8.44,2.35-10.63,6.14L22.11,321.45c-1.05,1.83-1.61,3.96-1.61,6.15c0,6.77,5.48,12.3,12.21,12.32h57.35
				c29.38,0,53.27,23.9,53.27,53.27v208.75c0,6.77,5.51,12.27,12.27,12.27h94.8c6.77,0,12.27-5.51,12.27-12.27V393.19
				c0-29.38,23.9-53.27,53.27-53.27h57.29c6.76,0,12.27-5.53,12.27-12.32c0-2.19-0.53-4.2-1.58-5.99L213.61,26.64
				C211.42,22.85,207.35,20.5,202.98,20.5z"/>
		</g>
		<path class="st4" d="M215.37,28.39l170.33,294.97c1.05,1.78,1.58,3.8,1.58,5.98c0,6.79-5.5,12.32-12.27,12.32h-57.29
			c-29.38,0-53.27,23.9-53.27,53.27V603.7c0,6.77-5.51,12.27-12.27,12.27h-94.8c-3.83,0-7.25-1.77-9.51-4.52
			c2.11,1.73,4.81,2.77,7.75,2.77h94.8c6.77,0,12.27-5.51,12.27-12.27V393.19c0-29.38,23.9-53.27,53.27-53.27h57.29
			c6.76,0,12.27-5.53,12.27-12.32c0-2.19-0.53-4.2-1.58-5.99L213.61,26.64c-0.33-0.56-0.71-1.08-1.11-1.58
			C213.63,25.98,214.61,27.09,215.37,28.39z M90.06,339.92H32.72c-2.91-0.01-5.58-1.05-7.68-2.77c2.24,2.75,5.64,4.52,9.44,4.53
			h57.35c14.24,0,27.19,5.63,36.75,14.76C118.87,346.27,105.2,339.92,90.06,339.92z M140.1,603.7V394.95
			c0-13.75-5.79-26.17-15.05-34.98c8.23,8.66,13.3,20.36,13.3,33.22v208.75c0,5.21,2.33,9.88,5.99,13.05
			C141.7,611.96,140.1,608.01,140.1,603.7z M17.26,329.35c0-3.07,0.79-6.06,2.28-8.65L189.78,25.89c3.08-5.33,8.81-8.64,14.96-8.64
			c4.2,0,8.21,1.55,11.3,4.22c-3.25-3.75-8.01-5.98-13.06-5.98c-6.15,0-11.88,3.31-14.96,8.64L17.78,318.95
			c-1.49,2.59-2.28,5.58-2.28,8.65c0,5.24,2.34,9.94,6.02,13.12C18.88,337.67,17.26,333.7,17.26,329.35z"/>
		<path class="st3" d="M138.54,244.75l-5.52,47.71h-15.49c-1.42-7.33-2.67-15.67-3.75-25.02c-0.5,4.01-1.65,12.35-3.46,25.02h-15.4
			l-5.55-47.71h12.05l1.31,16.65l1.27,16.09c0.46-8.33,1.6-19.24,3.43-32.74h12.88c0.17,1.39,0.62,6.64,1.35,15.73l1.37,18.15
			c0.7-11.55,1.86-22.84,3.46-33.89H138.54z M161.84,244.75l7.09,47.71h-12.68l-0.67-8.58h-4.44l-0.75,8.58h-12.83l6.33-47.71
			H161.84z M155.26,275.42c-0.63-5.4-1.26-12.08-1.89-20.04c-1.26,9.13-2.06,15.81-2.38,20.04H155.26z M171.04,244.75h8.78
			c5.85,0,9.82,0.23,11.89,0.68c2.07,0.45,3.76,1.61,5.07,3.46c1.31,1.86,1.96,4.82,1.96,8.88c0,3.71-0.46,6.21-1.38,7.48
			c-0.92,1.28-2.74,2.04-5.45,2.3c2.46,0.61,4.11,1.43,4.95,2.45c0.84,1.02,1.37,1.96,1.58,2.81c0.21,0.85,0.31,3.21,0.31,7.06
			v12.58h-11.52V276.6c0-2.55-0.2-4.14-0.6-4.74c-0.4-0.61-1.46-0.91-3.17-0.91v21.51h-12.4V244.75z M183.44,252.91v10.61
			c1.4,0,2.37-0.19,2.93-0.57c0.56-0.38,0.84-1.63,0.84-3.73v-2.62c0-1.51-0.27-2.5-0.81-2.98
			C185.86,253.15,184.88,252.91,183.44,252.91z M231.24,244.75v47.71h-10.87l-6.45-21.69v21.69h-10.37v-47.71h10.37l6.95,21.48
			v-21.48H231.24z M248.62,244.75v47.71h-12.4v-47.71H248.62z M281.3,244.75v47.71h-10.87l-6.45-21.69v21.69H253.6v-47.71h10.37
			l6.95,21.48v-21.48H281.3z M314.74,262.31h-12.41v-4.33c0-2.73-0.12-4.44-0.35-5.13c-0.24-0.69-0.8-1.03-1.68-1.03
			c-0.77,0-1.29,0.29-1.56,0.88c-0.28,0.59-0.41,2.1-0.41,4.54v22.9c0,2.14,0.14,3.55,0.41,4.23c0.27,0.68,0.83,1.02,1.65,1.02
			c0.9,0,1.52-0.38,1.84-1.15c0.32-0.77,0.49-2.26,0.49-4.48v-5.66h-2.51v-7.25h14.53v25.61h-7.8l-1.15-3.42
			c-0.84,1.47-1.91,2.58-3.2,3.32c-1.29,0.74-2.81,1.11-4.56,1.11c-2.08,0-4.04-0.51-5.85-1.52c-1.82-1.01-3.2-2.26-4.14-3.76
			c-0.94-1.49-1.53-3.06-1.77-4.7c-0.24-1.64-0.35-4.1-0.35-7.38v-14.17c0-4.56,0.25-7.87,0.74-9.93c0.49-2.06,1.9-3.95,4.23-5.67
			c2.33-1.72,5.34-2.58,9.03-2.58c3.63,0,6.65,0.75,9.05,2.24c2.4,1.49,3.96,3.27,4.68,5.32c0.73,2.05,1.09,5.03,1.09,8.94V262.31z"
			/>
		<path class="st3" d="M170.45,406v-8.02h-4.42V406h-5.1v-28.88c0-1.67,0.1-3,0.3-3.99c0.2-0.99,0.57-1.75,1.12-2.28
			c0.55-0.53,1.3-0.88,2.25-1.05c0.96-0.17,2.18-0.25,3.67-0.25c1.49,0,2.71,0.09,3.67,0.27c0.96,0.18,1.72,0.55,2.28,1.09
			c0.56,0.55,0.95,1.31,1.16,2.3c0.21,0.99,0.32,2.29,0.32,3.89V406H170.45z M168.22,374.25c-0.46,0-0.83,0.04-1.12,0.11
			c-0.29,0.08-0.52,0.21-0.68,0.41c-0.17,0.2-0.27,0.49-0.32,0.87c-0.05,0.38-0.07,0.87-0.07,1.48v16.58h4.42v-16.58
			c0-0.61-0.03-1.1-0.09-1.48c-0.06-0.38-0.17-0.67-0.32-0.87c-0.15-0.2-0.38-0.33-0.68-0.41
			C169.05,374.29,168.67,374.25,168.22,374.25z M194.5,406h-5.24v-19.68h-4.55V406h-5.24v-35.98h5.24v11.89h4.55v-11.89h5.24V406z
			 M208.84,406h-10.29v-35.98h10.25v4.33h-5.01v5.24h4.87v4.15h-4.87v17.76h5.06V406z M221.19,406v-8.02h-4.42V406h-5.1v-28.88
			c0-1.67,0.1-3,0.3-3.99c0.2-0.99,0.57-1.75,1.12-2.28c0.55-0.53,1.3-0.88,2.25-1.05c0.96-0.17,2.18-0.25,3.67-0.25
			c1.49,0,2.71,0.09,3.67,0.27c0.96,0.18,1.72,0.55,2.28,1.09c0.56,0.55,0.95,1.31,1.16,2.3c0.21,0.99,0.32,2.29,0.32,3.89V406
			H221.19z M218.95,374.25c-0.45,0-0.83,0.04-1.12,0.11c-0.29,0.08-0.52,0.21-0.68,0.41c-0.17,0.2-0.27,0.49-0.32,0.87
			c-0.05,0.38-0.07,0.87-0.07,1.48v16.58h4.42v-16.58c0-0.61-0.03-1.1-0.09-1.48c-0.06-0.38-0.17-0.67-0.32-0.87
			c-0.15-0.2-0.38-0.33-0.68-0.41C219.79,374.29,219.41,374.25,218.95,374.25z M245.14,398.62c0,1.61-0.1,2.9-0.29,3.87
			c-0.2,0.97-0.58,1.72-1.13,2.23c-0.56,0.52-1.32,0.86-2.29,1.03c-0.97,0.17-2.22,0.25-3.77,0.25h-7.45v-35.98h7.45
			c1.54,0,2.8,0.08,3.77,0.25c0.97,0.17,1.73,0.51,2.29,1.03c0.56,0.52,0.94,1.25,1.13,2.21c0.2,0.96,0.29,2.24,0.29,3.85V398.62z
			 M239.9,377.35c0-0.58-0.03-1.05-0.09-1.41c-0.06-0.36-0.17-0.65-0.32-0.87c-0.15-0.21-0.37-0.35-0.66-0.41
			c-0.29-0.06-0.68-0.09-1.16-0.09h-2.23v26.92h2.23c0.48,0,0.87-0.04,1.16-0.11c0.29-0.08,0.51-0.21,0.66-0.41
			c0.15-0.2,0.26-0.49,0.32-0.87c0.06-0.38,0.09-0.87,0.09-1.48V377.35z"/>
		<path class="st4" d="M189.26,370.02h5.24v1.06h-4.18v11.89h-4.55v-1.06h3.49V370.02z M204.6,245.81h9.65l-0.34-1.06h-10.37v47.71
			h1.06V245.81z M220.36,292.46h0.75l-6.14-20.63v2.5L220.36,292.46z M221.93,267.29v-21.48h9.31v-1.06h-10.37v19.27L221.93,267.29z
			 M186.86,254.33c0.23,0.54,0.35,1.28,0.35,2.26v2.62c0,2.1-0.28,3.34-0.84,3.73c-0.4,0.28-1.03,0.45-1.87,0.53v1.11
			c1.4,0,2.37-0.19,2.93-0.57c0.56-0.38,0.84-1.63,0.84-3.73v-2.62c0-1.51-0.27-2.51-0.81-2.98
			C187.3,254.54,187.1,254.43,186.86,254.33z M187.21,292.46h1.06v-14.79c0-2.55-0.2-4.14-0.6-4.75c-0.17-0.25-0.46-0.45-0.86-0.6
			c0.26,0.79,0.4,2.21,0.4,4.29V292.46z M196.85,270c-0.5-0.61-1.3-1.14-2.38-1.61c-0.47,0.09-0.97,0.17-1.51,0.22
			c1.82,0.45,3.19,1.01,4.12,1.69C197,270.21,196.94,270.11,196.85,270z M171.51,378.18c0-0.61-0.03-1.1-0.09-1.48
			c-0.06-0.38-0.17-0.67-0.32-0.87c-0.15-0.2-0.38-0.33-0.68-0.41c-0.03-0.01-0.08-0.01-0.12-0.02c0.02,0.08,0.04,0.15,0.06,0.23
			c0.06,0.38,0.09,0.87,0.09,1.48v16.58h-3.36v1.06h4.42V378.18z M208.66,379.58h-3.81v1.06h3.81V379.58z M302.02,252.97
			c0.21,0.75,0.32,2.41,0.32,5.01v4.33h1.06v-3.27c0-2.73-0.12-4.44-0.35-5.13C302.88,253.42,302.53,253.1,302.02,252.97z
			 M299.76,285.29c0.02,0.04,0.03,0.1,0.05,0.14c0.27,0.68,0.83,1.02,1.65,1.02c0.9,0,1.52-0.38,1.84-1.15
			c0.33-0.77,0.49-2.26,0.49-4.48v-5.66h-1.06v4.6c0,2.22-0.16,3.71-0.49,4.48c-0.32,0.77-0.94,1.15-1.84,1.15
			C300.16,285.38,299.95,285.35,299.76,285.29z M300.22,274.1h1.06v-6.19h13.47v-1.06h-14.53V274.1z M271.99,267.29v-21.48h9.31
			v-1.06h-10.37v19.27L271.99,267.29z M222.25,378.18c0-0.61-0.03-1.1-0.09-1.48c-0.06-0.38-0.17-0.67-0.32-0.87
			c-0.15-0.2-0.38-0.33-0.68-0.41c-0.04-0.01-0.08-0.01-0.12-0.02c0.02,0.08,0.04,0.15,0.06,0.23c0.06,0.38,0.09,0.87,0.09,1.48
			v16.58h-3.36v1.06h4.42V378.18z M172.1,245.81h8.78c5.85,0,9.82,0.23,11.89,0.68c1.3,0.28,2.44,0.84,3.44,1.67
			c-1.22-1.43-2.72-2.35-4.5-2.74c-2.07-0.45-6.04-0.68-11.89-0.68h-8.78v47.71h1.06V245.81z M204.85,401.49v1.06h3.99v-1.06H204.85
			z M239.89,402.44c0.29-0.08,0.51-0.21,0.66-0.41c0.15-0.2,0.26-0.49,0.32-0.87c0.06-0.38,0.09-0.87,0.09-1.48v-21.27
			c0-0.58-0.03-1.05-0.09-1.41c-0.06-0.36-0.17-0.65-0.32-0.87c-0.15-0.21-0.37-0.35-0.66-0.41c-0.04-0.01-0.1-0.01-0.14-0.02
			c0.02,0.08,0.05,0.15,0.06,0.23c0.06,0.36,0.09,0.84,0.09,1.41v21.27c0,0.61-0.03,1.1-0.09,1.48c-0.06,0.38-0.17,0.67-0.32,0.87
			c-0.15,0.2-0.37,0.33-0.66,0.41c-0.29,0.08-0.68,0.11-1.16,0.11h-1.17v1.06h2.23C239.22,402.55,239.61,402.51,239.89,402.44z
			 M237.28,245.81h11.34v-1.06h-12.4v47.71h1.06V245.81z M161.99,378.18c0-1.67,0.1-3,0.3-3.99c0.2-0.99,0.57-1.75,1.12-2.28
			c0.55-0.53,1.3-0.88,2.25-1.05c0.96-0.17,2.18-0.25,3.67-0.25c1.49,0,2.71,0.09,3.67,0.27c0.67,0.13,1.23,0.35,1.71,0.65
			c-0.15-0.23-0.31-0.44-0.49-0.62c-0.56-0.55-1.32-0.91-2.28-1.09c-0.96-0.18-2.18-0.27-3.67-0.27c-1.49,0-2.71,0.08-3.67,0.25
			c-0.96,0.17-1.71,0.52-2.25,1.05c-0.55,0.53-0.92,1.29-1.12,2.28c-0.2,0.99-0.3,2.32-0.3,3.99V406h1.06V378.18z M222.25,399.04
			h-1.06V406h1.06V399.04z M190.32,387.38h-1.06V406h1.06V387.38z M199.61,371.08h9.19v-1.06h-10.25V406h1.06V371.08z
			 M231.26,371.08h7.45c1.54,0,2.8,0.08,3.77,0.25c0.7,0.12,1.28,0.33,1.77,0.63c-0.16-0.25-0.33-0.48-0.54-0.67
			c-0.56-0.52-1.32-0.86-2.29-1.03c-0.97-0.17-2.22-0.25-3.77-0.25h-7.45V406h1.06V371.08z M212.73,378.18c0-1.67,0.1-3,0.3-3.99
			c0.2-0.99,0.57-1.75,1.12-2.28c0.55-0.53,1.3-0.88,2.25-1.05c0.96-0.17,2.18-0.25,3.67-0.25s2.71,0.09,3.67,0.27
			c0.67,0.13,1.23,0.35,1.71,0.65c-0.15-0.23-0.31-0.44-0.49-0.62c-0.56-0.55-1.32-0.91-2.28-1.09c-0.96-0.18-2.18-0.27-3.67-0.27
			c-1.49,0-2.71,0.08-3.67,0.25c-0.96,0.17-1.71,0.52-2.25,1.05c-0.55,0.53-0.92,1.29-1.12,2.28c-0.2,0.99-0.3,2.32-0.3,3.99V406
			h1.06V378.18z M306.86,290.1c-0.15,0.25-0.31,0.48-0.46,0.71l0.55,1.64h0.71L306.86,290.1z M289.11,289.24
			c-0.94-1.49-1.53-3.06-1.77-4.7c-0.24-1.64-0.35-4.1-0.35-7.38v-14.17c0-4.56,0.25-7.87,0.74-9.93c0.49-2.06,1.9-3.95,4.23-5.67
			c2.33-1.72,5.34-2.58,9.03-2.58c3.63,0,6.65,0.75,9.05,2.24c0.74,0.46,1.39,0.95,1.97,1.46c-0.79-0.91-1.8-1.76-3.03-2.52
			c-2.4-1.49-5.41-2.24-9.05-2.24c-3.69,0-6.7,0.86-9.03,2.58c-2.33,1.72-3.74,3.61-4.23,5.67c-0.49,2.06-0.74,5.37-0.74,9.93v14.17
			c0,3.28,0.12,5.74,0.35,7.38c0.24,1.64,0.83,3.21,1.77,4.7c0.5,0.8,1.14,1.52,1.89,2.18C289.64,290,289.36,289.63,289.11,289.24z
			 M254.66,245.81h9.65l-0.34-1.06H253.6v47.71h1.06V245.81z M265.04,271.83v2.5l5.39,18.12h0.75L265.04,271.83z M114.83,268.5
			c-0.12,0.98-0.28,2.21-0.48,3.7c0.94,7.44,2,14.2,3.17,20.25h0.86C117.05,285.38,115.86,277.41,114.83,268.5z M124.08,279.7
			c0.71-11.55,1.86-22.84,3.46-33.89h10.87l0.12-1.06h-12.05c-1.29,8.9-2.28,17.97-2.99,27.2L124.08,279.7z M180.53,371.08h4.18
			v-1.06h-5.24V406h1.06V371.08z M105.05,278.55c0.46-8.33,1.6-19.24,3.43-32.74h11.93c-0.05-0.46-0.08-0.82-0.11-1.06h-12.88
			c-1.38,10.2-2.37,18.91-2.97,26.16L105.05,278.55z M144.97,245.81h17.03l-0.16-1.06h-17.93l-6.33,47.71h1.2L144.97,245.81z
			 M90.42,245.81h11.07l-0.08-1.06H89.36l5.55,47.71h0.94L90.42,245.81z M171.51,399.04h-1.06V406h1.06V399.04z M156.65,284.94
			h-0.98l0.58,7.51h0.98L156.65,284.94z M154.43,256.45c-0.22,1.56-0.42,3.04-0.6,4.46c0.48,5.57,0.96,10.42,1.43,14.52h-3.12
			c-0.03,0.37-0.06,0.72-0.09,1.06h4.27C155.69,271.08,155.06,264.4,154.43,256.45z"/>
	</g>
</g>
</svg>
